<?xml version="1.0" encoding="UTF-8" standalone="no"?>
<!-- Created with Inkscape (http://www.inkscape.org/) -->

<svg
   width="841mm"
   height="1189mm"
   viewBox="0 0 841 1189"
   version="1.1"
   id="svg117"
   inkscape:version="1.1.1 (c3084ef, 2021-09-22)"
   sodipodi:docname="rl_icon.svg"
   xmlns:inkscape="http://www.inkscape.org/namespaces/inkscape"
   xmlns:sodipodi="http://sodipodi.sourceforge.net/DTD/sodipodi-0.dtd"
   xmlns="http://www.w3.org/2000/svg"
   xmlns:svg="http://www.w3.org/2000/svg">
  <sodipodi:namedview
     id="namedview119"
     pagecolor="#ffffff"
     bordercolor="#666666"
     borderopacity="1.0"
     inkscape:pageshadow="2"
     inkscape:pageopacity="0.0"
     inkscape:pagecheckerboard="false"
     inkscape:document-units="mm"
     showgrid="false"
     inkscape:zoom="0.61838584"
     inkscape:cx="911.24338"
     inkscape:cy="1548.386"
     inkscape:window-width="1920"
     inkscape:window-height="1035"
     inkscape:window-x="0"
     inkscape:window-y="23"
     inkscape:window-maximized="0"
     inkscape:current-layer="layer1"
     inkscape:snap-bbox="true"
     inkscape:snap-global="false"
     inkscape:bbox-paths="true"
     inkscape:bbox-nodes="true"
     inkscape:snap-bbox-edge-midpoints="true"
     inkscape:snap-bbox-midpoints="true"
     inkscape:snap-object-midpoints="true"
     inkscape:snap-center="false"
     inkscape:snap-others="true"
     units="mm" />
  <defs
     id="defs114" />
  <g
     inkscape:label="Layer 1"
     inkscape:groupmode="layer"
     id="layer1">
    <rect
       style="fill:#dde9af;fill-opacity:1;stroke-width:1.48076"
       id="rect2874"
       width="312.94565"
       height="156.47282"
       x="72.66024"
       y="357.09793" />
    <path
       id="path2809"
       style="fill:#d45500;stroke-width:0.440468"
       inkscape:transform-center-y="-30.784407"
       d="m 16.59087,13.394063 a 87.499999,87.499999 0 0 1 2.529562,-0.933276 87.499999,87.499999 0 0 1 6.612517,-1.865003 87.499999,87.499999 0 0 1 6.738606,-1.340485 87.499999,87.499999 0 0 1 6.82284,-0.807188 87.499999,87.499999 0 0 1 6.865212,-0.26975 87.499999,87.499999 0 0 1 3.835943,0.0863 87.499999,87.499999 0 0 1 3.828706,0.254248 L 54.258339,3.569857 A 92.499999,92.499999 0 0 0 50.213106,3.28512 92.499999,92.499999 0 0 0 46.159607,3.178668 a 92.499999,92.499999 0 0 0 -6.912239,0.258381 92.499999,92.499999 0 0 0 -6.874,0.774632 92.499999,92.499999 0 0 0 -6.797,1.285708 92.499999,92.499999 0 0 0 -6.681763,1.790589 92.499999,92.499999 0 0 0 -2.520776,0.882115 c 0.01444,1.698549 0.08516,3.439025 0.217041,5.22397 z" />
    <path
       id="path5424"
       style="fill:#d45500;stroke-width:0.440468"
       inkscape:transform-center-y="-30.784407"
       d="m 17.146393,23.923235 a 77.5,77.5 0 0 1 6.407359,-2.389518 77.5,77.5 0 0 1 10.805025,-2.350759 77.5,77.5 0 0 1 11.029302,-0.788583 77.5,77.5 0 0 1 0.02119,0.0015 v -5.000212 a 82.499998,82.499998 0 0 0 -0.02119,-0.0016 82.499998,82.499998 0 0 0 -11.740885,0.839742 82.499998,82.499998 0 0 0 -11.502142,2.502173 82.499998,82.499998 0 0 0 -5.771223,2.152322 c 0.213148,1.649454 0.474363,3.330022 0.772564,5.034835 z" />
    <path
       id="path5538"
       style="fill:#d45500;stroke-width:0.440468"
       inkscape:transform-center-y="-30.784407"
       d="m 204.3187,8.4299777 a 57.499998,57.499998 0 0 0 -7.19646,-2.684074 57.499998,57.499998 0 0 0 -8.01657,-1.743564 57.499998,57.499998 0 0 0 -8.18296,-0.585494 57.499998,57.499998 0 0 0 -5.07566,0.252182 l 0.43098,4.933548 a 52.5,52.5 0 0 1 4.60179,-0.225825 52.5,52.5 0 0 1 2.74763,0.07183 52.5,52.5 0 0 1 2.73989,0.216009 52.5,52.5 0 0 1 2.72541,0.358632 52.5,52.5 0 0 1 2.70268,0.500745 52.5,52.5 0 0 1 2.67219,0.6418213 52.5,52.5 0 0 1 2.6355,0.780314 52.5,52.5 0 0 1 2.59105,0.917774 52.5,52.5 0 0 1 2.53938,1.051615 52.5,52.5 0 0 1 0.54415,0.259416 c 0.54055,-1.59258 1.05037,-3.17293 1.541,-4.7449293 z" />
    <path
       id="path5687"
       style="fill:#d45500;stroke-width:0.440468"
       inkscape:transform-center-y="-30.784407"
       d="m 198.83571,23.48278 a 47.5,47.5 0 0 0 -0.42788,-0.233577 47.5,47.5 0 0 0 -6.35,-2.36833 47.5,47.5 0 0 0 -6.62234,-1.440222 47.5,47.5 0 0 0 -6.75979,-0.483693 47.5,47.5 0 0 0 -0.0212,0.0015 v 4.999697 a 42.499999,42.499999 0 0 1 0.0212,-0.0016 42.499999,42.499999 0 0 1 2.22415,0.05839 42.499999,42.499999 0 0 1 2.21847,0.174148 42.499999,42.499999 0 0 1 2.20607,0.290423 42.499999,42.499999 0 0 1 2.18746,0.405659 42.499999,42.499999 0 0 1 2.16369,0.519348 42.499999,42.499999 0 0 1 2.13372,0.632005 42.499999,42.499999 0 0 1 2.09703,0.74259 42.499999,42.499999 0 0 1 2.05569,0.851628 42.499999,42.499999 0 0 1 1.10174,0.525547 c 0.60913,-1.563577 1.20541,-3.122642 1.77199,-4.673616 z" />
    <path
       id="path6054"
       style="fill:#d45500;stroke-width:0.440468"
       inkscape:transform-center-y="-30.784407"
       d="m 26.707573,31.463405 a 22.499999,22.499999 0 0 1 0.210322,-0.12919 22.499999,22.499999 0 0 1 3.261816,-1.35134 22.499999,22.499999 0 0 1 3.433384,-0.82424 22.499999,22.499999 0 0 1 3.51968,-0.27698 22.499999,22.499999 0 0 1 0.0217,0.002 v -4.96042 a 27.5,27.5 0 0 0 -3.911388,0.28267 27.5,27.5 0 0 0 -3.831291,0.83612 27.5,27.5 0 0 0 -3.673679,1.37253 27.5,27.5 0 0 0 -1.109493,0.60616 c 0.677151,1.481 1.370661,2.9619 2.078944,4.44314 z" />
    <path
       id="path6054-0-1"
       style="fill:#008000;stroke-width:0.666979"
       inkscape:transform-center-y="-46.487788"
       d="m 70.684288,23.981784 a 34.07065,34.07065 0 0 0 -0.328807,-0.17773 34.07065,34.07065 0 0 0 -5.044733,-1.77021 34.07065,34.07065 0 0 0 -5.260025,-0.958919 34.07065,34.07065 0 0 0 -5.344709,-0.124282 34.07065,34.07065 0 0 0 -0.03263,0.0051 l -0.415045,-7.499844 a 41.641908,41.641908 0 0 1 5.937419,0.100106 41.641908,41.641908 0 0 1 5.86264,0.943593 41.641908,41.641908 0 0 1 5.669223,1.767784 41.641908,41.641908 0 0 1 1.728198,0.823649 c -0.899892,2.295832 -1.824526,4.592893 -2.771463,6.891703 z"
       inkscape:transform-center-x="2.7616675" />
    <path
       id="path2809-4-2"
       style="fill:#379389;stroke-width:0.663031;fill-opacity:1"
       d="m 99.097171,105.94044 a 131.71265,131.71265 0 0 0 -0.0396,-4.05841 131.71265,131.71265 0 0 0 -0.91207,-10.301771 131.71265,131.71265 0 0 0 -1.71751,-10.198673 131.71265,131.71265 0 0 0 -2.51298,-10.032001 131.71265,131.71265 0 0 0 -3.29187,-9.804224 131.71265,131.71265 0 0 0 -2.17283,-5.351351 131.71265,131.71265 0 0 0 -2.405274,-5.251353 l 6.731614,-3.257481 a 139.23909,139.23909 0 0 1 2.56398,5.539733 139.23909,139.23909 0 0 1 2.31753,5.646686 139.23909,139.23909 0 0 1 3.333009,9.864306 139.23909,139.23909 0 0 1 2.58614,10.086583 139.23909,139.23909 0 0 1 1.82585,10.251545 139.23909,139.23909 0 0 1 1.05379,10.3594 139.23909,139.23909 0 0 1 0.10685,4.018691 c -2.39771,0.8881 -4.88457,1.71925 -7.466659,2.48832 z"
       inkscape:transform-center-x="-43.350627"
       inkscape:transform-center-y="-16.511135"
       inkscape:export-filename="/Users/marten/Git/MartenThompson.github.io/img/rl_icon.png"
       inkscape:export-xdpi="201.91"
       inkscape:export-ydpi="201.91" />
    <path
       id="path5424-3-3"
       style="fill:#379389;stroke-width:0.661788;fill-opacity:1"
       inkscape:transform-center-y="-36.105692"
       d="M 99.081224,105.94044 A 116.44108,116.44108 0 0 0 93.921772,97.05532 116.44108,116.44108 0 0 0 83.619991,84.020896 116.44108,116.44108 0 0 0 71.567896,72.58614 116.44108,116.44108 0 0 0 71.542336,72.56708 l 4.768984,-5.804877 a 123.95341,123.95341 0 0 1 0.02651,0.0179 123.95341,123.95341 0 0 1 12.829391,12.172823 123.95341,123.95341 0 0 1 10.966679,13.875081 123.95341,123.95341 0 0 1 4.6472,8.003023 c -1.82064,1.71163 -3.72675,3.41348 -5.698928,5.10825 z"
       inkscape:transform-center-x="-29.376881"
       inkscape:export-filename="/Users/marten/Git/MartenThompson.github.io/img/rl_icon.png"
       inkscape:export-xdpi="201.91"
       inkscape:export-ydpi="201.91" />
    <path
       id="path5424-3-3-1"
       style="fill:#379389;stroke-width:0.599619;fill-opacity:1"
       inkscape:transform-center-y="-46.231291"
       d="m 103.05968,107.82527 a 95.591558,116.44108 0 0 0 -7.76295,-4.01839 95.591558,116.44108 0 0 0 -13.18386,-4.256587 95.591558,116.44108 0 0 0 -13.546652,-1.926941 95.591558,116.44108 0 0 0 -0.02617,6.9e-5 l 0.276648,-7.505081 a 101.75876,123.95341 0 0 1 0.02623,-0.0016 101.75876,123.95341 0 0 1 14.420628,2.051688 101.75876,123.95341 0 0 1 14.034475,4.530825 101.75876,123.95341 0 0 1 6.992211,3.619487 c -0.35389,2.46141 -0.76876,4.96623 -1.2305,7.50499 z"
       inkscape:transform-center-x="-1.7041588"
       inkscape:export-filename="/Users/marten/Git/MartenThompson.github.io/img/rl_icon.png"
       inkscape:export-xdpi="201.91"
       inkscape:export-ydpi="201.91" />
    <path
       id="path2809-4-2-5"
       style="fill:#379389;stroke-width:0.663031;fill-opacity:1"
       d="m 108.73871,105.94044 a 131.71265,131.71265 0 0 1 0.0396,-4.05841 131.71265,131.71265 0 0 1 0.91207,-10.301771 131.71265,131.71265 0 0 1 1.71751,-10.198673 131.71265,131.71265 0 0 1 2.51298,-10.032001 131.71265,131.71265 0 0 1 3.29187,-9.804224 131.71265,131.71265 0 0 1 2.17283,-5.351351 131.71265,131.71265 0 0 1 2.40528,-5.251353 l -6.73162,-3.257481 a 139.23909,139.23909 0 0 0 -2.56398,5.539733 139.23909,139.23909 0 0 0 -2.31753,5.646686 139.23909,139.23909 0 0 0 -3.33301,9.864306 139.23909,139.23909 0 0 0 -2.58612,10.086583 139.23909,139.23909 0 0 0 -1.82585,10.251545 139.23909,139.23909 0 0 0 -1.05379,10.359401 139.23909,139.23909 0 0 0 -0.10685,4.01869 c 2.39771,0.8881 4.88456,1.71925 7.46664,2.48832 z"
       inkscape:transform-center-x="43.350627"
       inkscape:transform-center-y="-16.511135"
       inkscape:export-filename="/Users/marten/Git/MartenThompson.github.io/img/rl_icon.png"
       inkscape:export-xdpi="201.91"
       inkscape:export-ydpi="201.91" />
    <path
       id="path5424-3-3-2"
       style="fill:#379389;stroke-width:0.661788;fill-opacity:1"
       inkscape:transform-center-y="-36.105692"
       d="m 108.75466,105.94044 a 116.44108,116.44108 0 0 1 5.15945,-8.88512 116.44108,116.44108 0 0 1 10.30178,-13.034424 116.44108,116.44108 0 0 1 12.0521,-11.434756 116.44108,116.44108 0 0 1 0.0256,-0.01906 l -4.76898,-5.804877 a 123.95341,123.95341 0 0 0 -0.0265,0.0179 123.95341,123.95341 0 0 0 -12.8294,12.172823 123.95341,123.95341 0 0 0 -10.96668,13.875081 123.95341,123.95341 0 0 0 -4.64718,8.003023 c 1.82064,1.71163 3.72674,3.41348 5.69891,5.10825 z"
       inkscape:transform-center-x="29.376837"
       inkscape:export-filename="/Users/marten/Git/MartenThompson.github.io/img/rl_icon.png"
       inkscape:export-xdpi="201.91"
       inkscape:export-ydpi="201.91" />
    <path
       id="path5424-3-3-1-0"
       style="fill:#379389;stroke-width:0.599619;fill-opacity:1"
       inkscape:transform-center-y="-46.231291"
       d="m 104.77622,107.82527 a 95.591558,116.44108 0 0 1 7.76293,-4.01839 95.591558,116.44108 0 0 1 13.18386,-4.25659 95.591558,116.44108 0 0 1 13.54666,-1.92694 95.591558,116.44108 0 0 1 0.0262,7e-5 l -0.27665,-7.50508 a 101.75876,123.95341 0 0 0 -0.0262,-0.0016 101.75876,123.95341 0 0 0 -14.42063,2.051688 101.75876,123.95341 0 0 0 -14.03447,4.530822 101.75876,123.95341 0 0 0 -6.9922,3.61949 c 0.35389,2.46141 0.76876,4.96623 1.2305,7.50499 z"
       inkscape:transform-center-x="1.7041138"
       inkscape:export-filename="/Users/marten/Git/MartenThompson.github.io/img/rl_icon.png"
       inkscape:export-xdpi="201.91"
       inkscape:export-ydpi="201.91" />
    <path
       id="path6393"
       style="fill:#ec8d59;stroke-width:0.440468;fill-opacity:1"
       inkscape:transform-center-y="-30.784407"
       d="m 103.91795,103.45212 c -21.445466,0 -29.959779,13.89388 -29.785778,34.35398 a 92.499999,92.499999 0 0 1 2.520775,-0.88212 92.499999,92.499999 0 0 1 6.681764,-1.79059 92.499999,92.499999 0 0 1 6.797,-1.28571 92.499999,92.499999 0 0 1 6.873999,-0.77463 92.499999,92.499999 0 0 1 6.91224,-0.25838 92.499999,92.499999 0 0 1 4.0535,0.10645 92.499999,92.499999 0 0 1 4.04523,0.28474 l -0.43408,4.94905 a 87.499999,87.499999 0 0 0 -3.82871,-0.25425 87.499999,87.499999 0 0 0 -3.83594,-0.0863 87.499999,87.499999 0 0 0 -6.865213,0.26975 87.499999,87.499999 0 0 0 -6.822839,0.80719 87.499999,87.499999 0 0 0 -6.738607,1.34049 87.499999,87.499999 0 0 0 -6.612517,1.865 87.499999,87.499999 0 0 0 -2.529562,0.93328 c 0.127024,1.71921 0.322959,3.48704 0.554488,5.27874 a 82.499998,82.499998 0 0 1 5.771223,-2.15232 82.499998,82.499998 0 0 1 11.502142,-2.50217 82.499998,82.499998 0 0 1 11.740885,-0.83974 82.499998,82.499998 0 0 1 0.0212,0.002 v 5.00021 a 77.5,77.5 0 0 0 -0.0212,-0.002 77.5,77.5 0 0 0 -11.029302,0.78858 77.5,77.5 0 0 0 -10.805025,2.35076 77.5,77.5 0 0 0 -6.407359,2.38952 c 2.547678,14.56509 8.13947,31.03925 15.715835,47.6095 a 27.5,27.5 0 0 1 1.109493,-0.60617 27.5,27.5 0 0 1 3.673679,-1.37253 27.5,27.5 0 0 1 3.831289,-0.83612 27.5,27.5 0 0 1 3.91139,-0.28267 v 4.96042 a 22.499999,22.499999 0 0 0 -0.0217,-0.002 22.499999,22.499999 0 0 0 -3.51968,0.27699 22.499999,22.499999 0 0 0 -3.433389,0.82423 22.499999,22.499999 0 0 0 -3.261815,1.35135 22.499999,22.499999 0 0 0 -0.210322,0.12919 c 3.198778,6.68965 6.696526,13.36886 10.446906,19.91816 7.19044,-12.55666 13.47168,-25.58649 18.40921,-38.26072 a 42.499999,42.499999 0 0 0 -1.10174,-0.52554 42.499999,42.499999 0 0 0 -2.05569,-0.85163 42.499999,42.499999 0 0 0 -2.09703,-0.74259 42.499999,42.499999 0 0 0 -2.13372,-0.63201 42.499999,42.499999 0 0 0 -2.16369,-0.51934 42.499999,42.499999 0 0 0 -2.18746,-0.40566 42.499999,42.499999 0 0 0 -2.20607,-0.29043 42.499999,42.499999 0 0 0 -2.21847,-0.17414 42.499999,42.499999 0 0 0 -2.22415,-0.0584 42.499999,42.499999 0 0 0 -0.0212,0.002 v -4.99969 a 47.5,47.5 0 0 1 0.0212,-0.002 47.5,47.5 0 0 1 6.75979,0.48369 47.5,47.5 0 0 1 6.62234,1.44022 47.5,47.5 0 0 1 6.34999,2.36833 47.5,47.5 0 0 1 0.42789,0.23358 c 0.58282,-1.59545 1.15914,-3.18895 1.69498,-4.76767 a 52.5,52.5 0 0 0 -0.54415,-0.25941 52.5,52.5 0 0 0 -2.53938,-1.05162 52.5,52.5 0 0 0 -2.59105,-0.91777 52.5,52.5 0 0 0 -2.6355,-0.78032 52.5,52.5 0 0 0 -2.67219,-0.64182 52.5,52.5 0 0 0 -2.70268,-0.50074 52.5,52.5 0 0 0 -2.72541,-0.35864 52.5,52.5 0 0 0 -2.73989,-0.216 52.5,52.5 0 0 0 -2.74763,-0.0718 52.5,52.5 0 0 0 -4.601791,0.22582 l -0.430982,-4.93313 a 57.499998,57.499998 0 0 1 5.075663,-0.25218 57.499998,57.499998 0 0 1 8.18296,0.58549 57.499998,57.499998 0 0 1 8.01656,1.74357 57.499998,57.499998 0 0 1 7.19646,2.68407 c 11.84891,-37.96441 8.85264,-69.4154 -23.41717,-69.4154 z"
       inkscape:export-filename="/Users/marten/Git/MartenThompson.github.io/img/rl_icon.png"
       inkscape:export-xdpi="201.91"
       inkscape:export-ydpi="201.91" />
    <g
       id="g2825"
       transform="rotate(40.075965,-59.364831,378.60045)">
      <path
         id="path2809-4-2-7"
         style="fill:#379389;fill-opacity:1;stroke-width:0.663031"
         d="m 191.56752,212.8939 a 131.71265,131.71265 0 0 0 -0.0396,-4.05841 131.71265,131.71265 0 0 0 -0.91207,-10.30177 131.71265,131.71265 0 0 0 -1.71751,-10.19867 131.71265,131.71265 0 0 0 -2.51298,-10.03201 131.71265,131.71265 0 0 0 -3.29187,-9.80422 131.71265,131.71265 0 0 0 -2.17283,-5.35135 131.71265,131.71265 0 0 0 -2.40527,-5.25135 l 6.73161,-3.25748 a 139.23909,139.23909 0 0 1 2.56398,5.53973 139.23909,139.23909 0 0 1 2.31753,5.64669 139.23909,139.23909 0 0 1 3.33301,9.8643 139.23909,139.23909 0 0 1 2.58614,10.08658 139.23909,139.23909 0 0 1 1.82585,10.25155 139.23909,139.23909 0 0 1 1.05379,10.3594 139.23909,139.23909 0 0 1 0.10685,4.01869 c -2.39771,0.8881 -4.88457,1.71925 -7.46666,2.48832 z"
         inkscape:transform-center-x="-43.350627"
         inkscape:transform-center-y="-16.511135"
         inkscape:export-filename="/Users/marten/Git/MartenThompson.github.io/img/rl_icon.png"
         inkscape:export-xdpi="201.91"
         inkscape:export-ydpi="201.91" />
      <path
         id="path5424-3-3-0"
         style="fill:#379389;fill-opacity:1;stroke-width:0.661788"
         inkscape:transform-center-y="-36.105692"
         d="m 191.55158,212.8939 a 116.44108,116.44108 0 0 0 -5.15946,-8.88512 116.44108,116.44108 0 0 0 -10.30178,-13.03442 116.44108,116.44108 0 0 0 -12.05209,-11.43476 116.44108,116.44108 0 0 0 -0.0256,-0.0191 l 4.76898,-5.80488 a 123.95341,123.95341 0 0 1 0.0265,0.0179 123.95341,123.95341 0 0 1 12.82939,12.17283 123.95341,123.95341 0 0 1 10.96668,13.87508 123.95341,123.95341 0 0 1 4.6472,8.00302 c -1.82064,1.71163 -3.72675,3.41348 -5.69893,5.10825 z"
         inkscape:transform-center-x="-29.376881"
         inkscape:export-filename="/Users/marten/Git/MartenThompson.github.io/img/rl_icon.png"
         inkscape:export-xdpi="201.91"
         inkscape:export-ydpi="201.91" />
      <path
         id="path5424-3-3-1-3"
         style="fill:#379389;fill-opacity:1;stroke-width:0.599619"
         inkscape:transform-center-y="-46.231291"
         d="m 195.53003,214.77873 a 95.591558,116.44108 0 0 0 -7.76295,-4.01839 95.591558,116.44108 0 0 0 -13.18386,-4.25659 95.591558,116.44108 0 0 0 -13.54665,-1.92694 95.591558,116.44108 0 0 0 -0.0262,7e-5 l 0.27665,-7.50508 a 101.75876,123.95341 0 0 1 0.0262,-0.002 101.75876,123.95341 0 0 1 14.42062,2.05169 101.75876,123.95341 0 0 1 14.03448,4.53082 101.75876,123.95341 0 0 1 6.99221,3.61949 c -0.35389,2.46141 -0.76876,4.96623 -1.2305,7.50499 z"
         inkscape:transform-center-x="-1.7041588"
         inkscape:export-filename="/Users/marten/Git/MartenThompson.github.io/img/rl_icon.png"
         inkscape:export-xdpi="201.91"
         inkscape:export-ydpi="201.91" />
      <path
         id="path2809-4-2-5-9"
         style="fill:#379389;fill-opacity:1;stroke-width:0.663031"
         d="m 201.20906,212.8939 a 131.71265,131.71265 0 0 1 0.0396,-4.05841 131.71265,131.71265 0 0 1 0.91207,-10.30177 131.71265,131.71265 0 0 1 1.71751,-10.19867 131.71265,131.71265 0 0 1 2.51298,-10.03201 131.71265,131.71265 0 0 1 3.29187,-9.80422 131.71265,131.71265 0 0 1 2.17283,-5.35135 131.71265,131.71265 0 0 1 2.40528,-5.25135 l -6.73162,-3.25748 a 139.23909,139.23909 0 0 0 -2.56398,5.53973 139.23909,139.23909 0 0 0 -2.31753,5.64669 139.23909,139.23909 0 0 0 -3.33301,9.8643 139.23909,139.23909 0 0 0 -2.58612,10.08658 139.23909,139.23909 0 0 0 -1.82585,10.25155 139.23909,139.23909 0 0 0 -1.05379,10.3594 139.23909,139.23909 0 0 0 -0.10685,4.01869 c 2.39771,0.8881 4.88456,1.71925 7.46664,2.48832 z"
         inkscape:transform-center-x="43.350627"
         inkscape:transform-center-y="-16.511135"
         inkscape:export-filename="/Users/marten/Git/MartenThompson.github.io/img/rl_icon.png"
         inkscape:export-xdpi="201.91"
         inkscape:export-ydpi="201.91" />
      <path
         id="path5424-3-3-2-8"
         style="fill:#379389;fill-opacity:1;stroke-width:0.661788"
         inkscape:transform-center-y="-36.105692"
         d="m 201.22501,212.8939 a 116.44108,116.44108 0 0 1 5.15945,-8.88512 116.44108,116.44108 0 0 1 10.30178,-13.03442 116.44108,116.44108 0 0 1 12.0521,-11.43476 116.44108,116.44108 0 0 1 0.0256,-0.0191 l -4.76898,-5.80488 a 123.95341,123.95341 0 0 0 -0.0265,0.0179 123.95341,123.95341 0 0 0 -12.8294,12.17283 123.95341,123.95341 0 0 0 -10.96668,13.87508 123.95341,123.95341 0 0 0 -4.64718,8.00302 c 1.82064,1.71163 3.72674,3.41348 5.69891,5.10825 z"
         inkscape:transform-center-x="29.376837"
         inkscape:export-filename="/Users/marten/Git/MartenThompson.github.io/img/rl_icon.png"
         inkscape:export-xdpi="201.91"
         inkscape:export-ydpi="201.91" />
      <path
         id="path5424-3-3-1-0-6"
         style="fill:#379389;fill-opacity:1;stroke-width:0.599619"
         inkscape:transform-center-y="-46.231291"
         d="m 197.24657,214.77873 a 95.591558,116.44108 0 0 1 7.76293,-4.01839 95.591558,116.44108 0 0 1 13.18386,-4.25659 95.591558,116.44108 0 0 1 13.54666,-1.92694 95.591558,116.44108 0 0 1 0.0262,7e-5 l -0.27665,-7.50508 a 101.75876,123.95341 0 0 0 -0.0262,-0.002 101.75876,123.95341 0 0 0 -14.42063,2.05169 101.75876,123.95341 0 0 0 -14.03447,4.53082 101.75876,123.95341 0 0 0 -6.9922,3.61949 c 0.35389,2.46141 0.76876,4.96623 1.2305,7.50499 z"
         inkscape:transform-center-x="1.7041138"
         inkscape:export-filename="/Users/marten/Git/MartenThompson.github.io/img/rl_icon.png"
         inkscape:export-xdpi="201.91"
         inkscape:export-ydpi="201.91" />
      <path
         id="path6393-5"
         style="fill:#ec8d59;fill-opacity:1;stroke-width:0.440468"
         inkscape:transform-center-y="-30.784407"
         d="m 196.3883,210.40558 c -21.44547,0 -29.95978,13.89388 -29.78578,34.35398 a 92.499999,92.499999 0 0 1 2.52078,-0.88212 92.499999,92.499999 0 0 1 6.68176,-1.79059 92.499999,92.499999 0 0 1 6.797,-1.28571 92.499999,92.499999 0 0 1 6.874,-0.77463 92.499999,92.499999 0 0 1 6.91224,-0.25838 92.499999,92.499999 0 0 1 4.0535,0.10645 92.499999,92.499999 0 0 1 4.04523,0.28474 l -0.43408,4.94905 a 87.499999,87.499999 0 0 0 -3.82871,-0.25425 87.499999,87.499999 0 0 0 -3.83594,-0.0863 87.499999,87.499999 0 0 0 -6.86521,0.26975 87.499999,87.499999 0 0 0 -6.82284,0.80719 87.499999,87.499999 0 0 0 -6.73861,1.34049 87.499999,87.499999 0 0 0 -6.61251,1.865 87.499999,87.499999 0 0 0 -2.52957,0.93328 c 0.12703,1.71921 0.32296,3.48704 0.55449,5.27874 a 82.499998,82.499998 0 0 1 5.77122,-2.15232 82.499998,82.499998 0 0 1 11.50215,-2.50217 82.499998,82.499998 0 0 1 11.74088,-0.83974 82.499998,82.499998 0 0 1 0.0212,0.002 v 5.00021 a 77.5,77.5 0 0 0 -0.0212,-0.002 77.5,77.5 0 0 0 -11.0293,0.78858 77.5,77.5 0 0 0 -10.80503,2.35076 77.5,77.5 0 0 0 -6.40735,2.38952 c 2.54767,14.56509 8.13947,31.03925 15.71583,47.6095 a 27.5,27.5 0 0 1 1.10949,-0.60617 27.5,27.5 0 0 1 3.67368,-1.37253 27.5,27.5 0 0 1 3.83129,-0.83612 27.5,27.5 0 0 1 3.91139,-0.28267 v 4.96042 a 22.499999,22.499999 0 0 0 -0.0217,-0.002 22.499999,22.499999 0 0 0 -3.51968,0.27699 22.499999,22.499999 0 0 0 -3.43339,0.82423 22.499999,22.499999 0 0 0 -3.26181,1.35135 22.499999,22.499999 0 0 0 -0.21032,0.12919 c 3.19877,6.68965 6.69652,13.36886 10.4469,19.91816 7.19044,-12.55666 13.47168,-25.58649 18.40921,-38.26072 a 42.499999,42.499999 0 0 0 -1.10174,-0.52554 42.499999,42.499999 0 0 0 -2.05569,-0.85163 42.499999,42.499999 0 0 0 -2.09703,-0.74259 42.499999,42.499999 0 0 0 -2.13372,-0.63201 42.499999,42.499999 0 0 0 -2.16369,-0.51934 42.499999,42.499999 0 0 0 -2.18746,-0.40566 42.499999,42.499999 0 0 0 -2.20607,-0.29043 42.499999,42.499999 0 0 0 -2.21847,-0.17414 42.499999,42.499999 0 0 0 -2.22415,-0.0584 42.499999,42.499999 0 0 0 -0.0212,0.002 v -4.99969 a 47.5,47.5 0 0 1 0.0212,-0.002 47.5,47.5 0 0 1 6.75979,0.48369 47.5,47.5 0 0 1 6.62234,1.44022 47.5,47.5 0 0 1 6.34999,2.36833 47.5,47.5 0 0 1 0.42789,0.23358 c 0.58282,-1.59545 1.15914,-3.18895 1.69498,-4.76767 a 52.5,52.5 0 0 0 -0.54415,-0.25941 52.5,52.5 0 0 0 -2.53938,-1.05162 52.5,52.5 0 0 0 -2.59105,-0.91777 52.5,52.5 0 0 0 -2.6355,-0.78032 52.5,52.5 0 0 0 -2.67219,-0.64182 52.5,52.5 0 0 0 -2.70268,-0.50074 52.5,52.5 0 0 0 -2.72541,-0.35864 52.5,52.5 0 0 0 -2.73989,-0.216 52.5,52.5 0 0 0 -2.74763,-0.0718 52.5,52.5 0 0 0 -4.60179,0.22582 l -0.43098,-4.93313 a 57.499998,57.499998 0 0 1 5.07566,-0.25218 57.499998,57.499998 0 0 1 8.18296,0.58549 57.499998,57.499998 0 0 1 8.01656,1.74357 57.499998,57.499998 0 0 1 7.19646,2.68407 c 11.84891,-37.96441 8.85264,-69.4154 -23.41717,-69.4154 z"
         inkscape:export-filename="/Users/marten/Git/MartenThompson.github.io/img/rl_icon.png"
         inkscape:export-xdpi="201.91"
         inkscape:export-ydpi="201.91" />
    </g>
  </g>
</svg>
