<?xml version="1.0" encoding="UTF-8" standalone="no"?>
<svg
   xmlns:dc="http://purl.org/dc/elements/1.1/"
   xmlns:cc="http://creativecommons.org/ns#"
   xmlns:rdf="http://www.w3.org/1999/02/22-rdf-syntax-ns#"
   xmlns:svg="http://www.w3.org/2000/svg"
   xmlns="http://www.w3.org/2000/svg"
   xmlns:sodipodi="http://sodipodi.sourceforge.net/DTD/sodipodi-0.dtd"
   xmlns:inkscape="http://www.inkscape.org/namespaces/inkscape"
   sodipodi:docname="weather_icon.svg"
   inkscape:version="1.0 (4035a4f, 2020-05-01)"
   id="svg8"
   version="1.1"
   viewBox="0 0 210 297"
   height="297mm"
   width="210mm">
  <defs
     id="defs2" />
  <sodipodi:namedview
     inkscape:snap-bbox="false"
     inkscape:snap-nodes="true"
     inkscape:window-maximized="0"
     inkscape:window-y="23"
     inkscape:window-x="0"
     inkscape:window-height="855"
     inkscape:window-width="1440"
     showgrid="false"
     inkscape:document-rotation="0"
     inkscape:current-layer="layer1"
     inkscape:document-units="mm"
     inkscape:cy="588.63008"
     inkscape:cx="391.41596"
     inkscape:zoom="2.9403699"
     inkscape:pageshadow="2"
     inkscape:pageopacity="0.0"
     borderopacity="1.0"
     bordercolor="#666666"
     pagecolor="#ffffff"
     id="base" />
  <metadata
     id="metadata5">
    <rdf:RDF>
      <cc:Work
         rdf:about="">
        <dc:format>image/svg+xml</dc:format>
        <dc:type
           rdf:resource="http://purl.org/dc/dcmitype/StillImage" />
        <dc:title></dc:title>
      </cc:Work>
    </rdf:RDF>
  </metadata>
  <g
     id="layer1"
     inkscape:groupmode="layer"
     inkscape:label="Layer 1">
    <path
       inkscape:transform-center-y="-1.3916554e-06"
       d="m 147.02078,190.2397 -27.12782,-16.14308 0.62825,31.56141 -15.42184,-27.54423 -15.236623,27.64711 0.416413,-31.56492 -27.018861,16.32479 16.143084,-27.12782 -31.561413,0.62825 27.544229,-15.42184 -27.64711,-15.23662 31.56492,0.41641 -16.324786,-27.01886 27.127816,16.14308 -0.628249,-31.56141 15.42184,27.54423 15.23662,-27.647111 -0.41641,31.564921 27.01886,-16.32479 -16.14308,27.12782 31.56141,-0.62825 -27.54423,15.42184 27.64711,15.23662 -31.56492,-0.41641 z"
       inkscape:randomized="0"
       inkscape:rounded="0"
       inkscape:flatsided="false"
       sodipodi:arg2="1.0438419"
       sodipodi:arg1="0.78204247"
       sodipodi:r2="29.613968"
       sodipodi:r1="59.227936"
       sodipodi:cy="148.5"
       sodipodi:cx="105"
       sodipodi:sides="12"
       id="path877"
       style="opacity:1;fill:#ec8d59;fill-opacity:1;stroke-width:0.264999;stroke-miterlimit:4;stroke-dasharray:none"
       sodipodi:type="star" />
    <path
       id="path851-6"
       style="opacity:1;fill:#ffffff;fill-opacity:1;stroke-width:0.200284"
       d="m 142,148.5 a 36.999995,36.999999 0 0 1 -37,37 36.999995,36.999999 0 0 1 -37.000002,-37 36.999995,36.999999 0 0 1 37.000002,-37 36.999995,36.999999 0 0 1 37,37" />
    <rect
       transform="rotate(-30)"
       y="179.89607"
       x="-62.101959"
       height="150"
       width="150"
       id="rect893"
       style="opacity:1;fill:#cccccc;fill-opacity:1;stroke-width:0.473391;stroke-miterlimit:4;stroke-dasharray:none" />
    <path
       d="m 137,148.5 a 32,32 0 0 1 -32,32 32,32 0 0 1 -31.999999,-32 32,32 0 0 1 31.999999,-32 32,32 0 0 1 32,32"
       style="opacity:1;fill:#ec8d59;fill-opacity:1;stroke-width:0.173219"
       id="path851" />
    <rect
       transform="rotate(-30)"
       y="178.60477"
       x="-18.317333"
       height="5"
       width="70"
       id="rect883"
       style="opacity:1;fill:#ffffff;fill-opacity:1;stroke-width:0.264999;stroke-miterlimit:4;stroke-dasharray:none" />
    <path
       inkscape:transform-center-y="4.0893111"
       inkscape:transform-center-x="-1.7953073"
       transform="rotate(-30)"
       d="m 8.781148,183.71535 a 12,12 0 0 1 -6.0000002,10.3923 12,12 0 0 1 -12.0000002,0 12,12 0 0 1 -5.9999996,-10.3923 h 12 z"
       sodipodi:arc-type="slice"
       sodipodi:end="3.1415927"
       sodipodi:start="0"
       sodipodi:ry="12"
       sodipodi:rx="12"
       sodipodi:cy="183.71535"
       sodipodi:cx="-3.218852"
       sodipodi:type="arc"
       id="path895"
       style="opacity:1;fill:#008000;fill-opacity:1;stroke-width:0.260089;stroke-miterlimit:4;stroke-dasharray:none" />
    <path
       style="opacity:1;fill:#008000;fill-opacity:1;stroke-width:0.260089;stroke-miterlimit:4;stroke-dasharray:none"
       id="path895-3"
       sodipodi:type="arc"
       sodipodi:cx="36.603329"
       sodipodi:cy="183.70653"
       sodipodi:rx="12"
       sodipodi:ry="12"
       sodipodi:start="0"
       sodipodi:end="3.1415927"
       sodipodi:arc-type="slice"
       d="m 48.603329,183.70653 a 12,12 0 0 1 -6,10.3923 12,12 0 0 1 -12.000001,0 12,12 0 0 1 -5.999999,-10.3923 h 12 z"
       transform="rotate(-30)"
       inkscape:transform-center-x="-1.7953073"
       inkscape:transform-center-y="4.0893111" />
    <path
       style="opacity:1;fill:#008000;fill-opacity:1;stroke-width:0.260089;stroke-miterlimit:4;stroke-dasharray:none"
       id="path895-2"
       sodipodi:type="arc"
       sodipodi:cx="18.479309"
       sodipodi:cy="200.88094"
       sodipodi:rx="12"
       sodipodi:ry="12"
       sodipodi:start="0"
       sodipodi:end="3.1415927"
       sodipodi:arc-type="slice"
       d="m 30.479309,200.88094 a 12,12 0 0 1 -6,10.3923 12,12 0 0 1 -12,0 12,12 0 0 1 -5.9999999,-10.3923 H 18.479309 Z"
       transform="rotate(-30)"
       inkscape:transform-center-x="-1.7953073"
       inkscape:transform-center-y="4.0893111" />
    <path
       style="opacity:1;fill:#008000;fill-opacity:1;stroke-width:0.260089;stroke-miterlimit:4;stroke-dasharray:none"
       id="path895-6"
       sodipodi:type="arc"
       sodipodi:cx="54.079571"
       sodipodi:cy="188.79712"
       sodipodi:rx="12"
       sodipodi:ry="12"
       sodipodi:start="0"
       sodipodi:end="3.1415927"
       sodipodi:arc-type="slice"
       d="m 66.079571,188.79712 a 12,12 0 0 1 -6,10.3923 12,12 0 0 1 -12.000001,0 12,12 0 0 1 -5.999999,-10.3923 h 12 z"
       transform="rotate(-15)"
       inkscape:transform-center-x="-0.8801878"
       inkscape:transform-center-y="5.7558895" />
    <path
       style="opacity:1;fill:#008000;fill-opacity:1;stroke-width:0.260089;stroke-miterlimit:4;stroke-dasharray:none"
       id="path895-9"
       sodipodi:type="arc"
       sodipodi:cx="-20.142696"
       sodipodi:cy="195.85977"
       sodipodi:rx="12"
       sodipodi:ry="12"
       sodipodi:start="0"
       sodipodi:end="3.1415927"
       sodipodi:arc-type="slice"
       d="m -8.1426964,195.85977 a 12,12 0 0 1 -6.0000006,10.39231 12,12 0 0 1 -12,0 12,12 0 0 1 -5.999999,-10.39231 h 12 z"
       transform="rotate(-45)"
       inkscape:transform-center-x="-2.9969684"
       inkscape:transform-center-y="2.5529415" />
  </g>
</svg>
